<?xml version="1.0" encoding="iso-8859-1"?>
<!-- Generator: Adobe Illustrator 17.1.0, SVG Export Plug-In . SVG Version: 6.00 Build 0)  -->
<!DOCTYPE svg PUBLIC "-//W3C//DTD SVG 1.1//EN" "http://www.w3.org/Graphics/SVG/1.1/DTD/svg11.dtd">
<svg version="1.1" id="Capa_1" xmlns="http://www.w3.org/2000/svg" xmlns:xlink="http://www.w3.org/1999/xlink" x="0px" y="0px"
	 viewBox="0 0 233.884 233.884" style="enable-background:new 0 0 233.884 233.884;" xml:space="preserve">
<g>
	<path style="fill:#000002;" d="M98.659,133.091h36.565c8.822,0,16-7.178,16-16V83.302c0-5.005-2.314-9.477-5.923-12.412
		c0.009-0.14,0.021-0.277,0.021-0.418v-7.599c0-15.649-12.732-28.381-28.381-28.381S88.561,47.224,88.561,62.874v7.599
		c0,0.141,0.012,0.279,0.021,0.418c-3.609,2.936-5.922,7.407-5.922,12.412v33.789C82.659,125.914,89.837,133.091,98.659,133.091z
		 M139.225,117.091c0,2.168-1.832,4-4,4H98.659c-2.168,0-4-1.832-4-4V83.302c0-2.168,1.832-4,4-4h36.565c2.168,0,4,1.832,4,4
		V117.091z M116.941,46.493c9.032,0,16.381,7.349,16.381,16.381v4.429h-32.762v-4.429C100.561,53.841,107.909,46.493,116.941,46.493
		z"/>
	<path style="fill:#000002;" d="M116.941,89.431c-3.313,0-6,2.686-6,6v10.031c0,3.313,2.687,6,6,6s6-2.687,6-6V95.431
		C122.941,92.117,120.255,89.431,116.941,89.431z"/>
	<path style="fill:#000002;" d="M211.384,7.33H22.5C10.093,7.33,0,17.423,0,29.83v140.796c0,12.406,10.093,22.5,22.5,22.5h57.461
		v18.429H54.664c-4.142,0-7.5,3.357-7.5,7.5c0,4.143,3.358,7.5,7.5,7.5H179.22c4.142,0,7.5-3.357,7.5-7.5c0-4.143-3.358-7.5-7.5-7.5
		h-25.297v-18.429h57.461c12.407,0,22.5-10.094,22.5-22.5V29.83C233.884,17.423,223.79,7.33,211.384,7.33z M22.5,22.33h188.884
		c4.136,0,7.5,3.364,7.5,7.5V140.96H15V29.83C15,25.694,18.364,22.33,22.5,22.33z M138.922,210.554H94.961v-17.429h43.961V210.554z
		 M211.384,178.126H22.5c-4.136,0-7.5-3.364-7.5-7.5V155.96h203.884v14.665C218.884,174.761,215.52,178.126,211.384,178.126z"/>
</g>
<g>
</g>
<g>
</g>
<g>
</g>
<g>
</g>
<g>
</g>
<g>
</g>
<g>
</g>
<g>
</g>
<g>
</g>
<g>
</g>
<g>
</g>
<g>
</g>
<g>
</g>
<g>
</g>
<g>
</g>
</svg>
