<svg xmlns="http://www.w3.org/2000/svg" xmlns:xlink="http://www.w3.org/1999/xlink" viewBox="0 0 1920 540" preserveAspectRatio="none"><defs><path id="a" d="M0 0h1920v540H0z"/></defs><clipPath id="b"><use xlink:href="#a" overflow="visible"/></clipPath><path clip-path="url(#b)" fill="#1f1f79" d="M0 0h1920v540H0z"/><path d="M1883-80c-13.1 0-25.8 2.2-37.6 6.2-19.3-38.1-58.8-64.2-104.4-64.2-34 0-64.5 14.5-85.9 37.6-17.6-10.5-38.1-16.6-60.1-16.6-21 0-40.6 5.5-57.6 15.2-21.4-27.5-54.8-45.2-92.4-45.2-20.3 0-39.3 5.2-55.9 14.2-18.4-9.1-39.1-14.2-61.1-14.2-33.1 0-63.4 11.6-87.2 31-21.6-13.9-47.2-22-74.8-22-14.7 0-28.9 2.3-42.2 6.6-19.1-10-40.8-15.6-63.8-15.6-50.5 0-94.6 27.1-118.7 67.5C917.8-98 888.2-109 856-109c-37.3 0-71.2 14.8-96 38.9-24.8-24.1-58.7-38.9-96-38.9-50.9 0-95.4 27.6-119.3 68.6-13.6-6.2-28.8-9.6-44.7-9.6-18.6 0-36.1 4.7-51.4 12.9C429.8-69.9 394.5-92 354-92c-16.3 0-31.8 3.6-45.7 10-16.4-63.3-73.9-110-142.3-110-46.1 0-87.2 21.2-114.2 54.4C35.7-143.7 18.2-147 0-147c-81.2 0-147 65.8-147 147S-81.2 147 0 147c46.1 0 87.2-21.2 114.2-54.4 16.1 6.1 33.6 9.4 51.8 9.4 3 0 5.9-.1 8.8-.3 20 22.3 48.9 36.3 81.2 36.3 22.5 0 43.4-6.8 60.8-18.5 11.6 4.2 24.1 6.5 37.2 6.5 18.6 0 36.1-4.7 51.4-12.9 18.8 32.8 54.1 54.9 94.6 54.9 30.1 0 57.3-12.2 77-31.9 23.7 19.3 54 30.9 87 30.9 37.3 0 71.2-14.8 96-38.9 24.8 24.1 58.7 38.9 96 38.9 50.5 0 94.6-27.1 118.7-67.5 23.5 18.5 53.1 29.5 85.3 29.5 14.7 0 28.9-2.3 42.2-6.6 19.1 10 40.8 15.6 63.8 15.6 33.1 0 63.4-11.6 87.2-31 21.6 13.9 47.2 22 74.8 22 39.5 0 75.1-16.6 100.3-43.2 5.5.8 11 1.2 16.7 1.2 21 0 40.6-5.5 57.6-15.2 16.2 20.8 39.4 36.1 66 42.2 21 19.8 49.2 32 80.4 32 39.7 0 74.8-19.8 96-50.1 11.7-.4 23-2.5 33.6-6.1 19.3 38.1 58.8 64.2 104.4 64.2 64.6 0 117-52.4 117-117s-52.4-117-117-117z" clip-path="url(#b)" fill="#adadea"/><path d="M1931-105c-18.7 0-36.4 4.3-52.1 12.1-17.1-44-59.9-75.1-109.9-75.1-42.7 0-80.1 22.7-100.8 56.7-12.3-4.3-25.4-6.7-39.2-6.7-34.4 0-65.3 14.7-86.8 38.1-16-27-45.5-45.1-79.2-45.1-29.3 0-55.5 13.7-72.3 35.1-6.3-1.4-12.9-2.1-19.7-2.1-9.8 0-19.2 1.5-28 4.4-14.4-32-46.6-54.4-84-54.4-41.1 0-75.9 26.9-87.7 64.1-3.8-.6-7.7-1-11.6-1.1-21.4-34.2-59.4-57-102.7-57-48.4 0-90.1 28.4-109.5 69.4C929.3-77.6 907.9-84 885-84c-7.7 0-15.3.7-22.7 2.1-20.1-26.2-51.7-43.1-87.3-43.1-42.3 0-79.1 23.9-97.5 59-19.8-19.2-46.8-31-76.5-31-27.5 0-52.7 10.1-72 26.8C509.7-86.9 484.5-97 457-97c-25.8 0-49.6 8.9-68.3 23.8C371.6-88 349.4-97 325-97c-22.5 0-43.2 7.6-59.6 20.5A96.77 96.77 0 0 0 228-84c-11.4 0-22.4 2-32.6 5.6C177.6-99 151.3-112 122-112c-5.6 0-11.1.5-16.5 1.4C81.7-143 43.3-164 0-164c-72.3 0-131 58.7-131 131S-72.3 98 0 98c29.5 0 56.7-9.8 78.6-26.2C91.7 78.3 106.4 82 122 82c11.4 0 22.4-2 32.6-5.6C172.4 97 198.7 110 228 110c22.5 0 43.2-7.6 59.6-20.5 11.5 4.8 24.1 7.5 37.4 7.5 17.5 0 34-4.7 48.2-12.8 20.2 23.7 50.2 38.8 83.8 38.8 27.5 0 52.7-10.1 72-26.8 19.3 16.7 44.5 26.8 72 26.8 42.3 0 79.1-23.9 97.5-59 19.8 19.2 46.8 31 76.5 31 1.3 0 2.5 0 3.7-.1C799.3 132.5 839.2 158 885 158c48.4 0 90.1-28.4 109.5-69.4 18.2 11 39.6 17.4 62.5 17.4 19.6 0 38.2-4.7 54.6-13 13.4 7.6 28.9 12 45.4 12 41.1 0 75.9-26.9 87.7-64.1 4.7.7 9.4 1.1 14.3 1.1 9.8 0 19.2-1.5 28-4.4 14.4 32 46.6 54.4 84 54.4 29.3 0 55.5-13.7 72.3-35.1 6.3 1.4 12.9 2.1 19.7 2.1 20.7 0 39.8-6.8 55.2-18.4 16.6 45.2 59.9 77.4 110.8 77.4 42.7 0 80.1-22.7 100.8-56.7 12.3 4.3 25.4 6.7 39.2 6.7 18.7 0 36.4-4.3 52.1-12.1 17.1 44 59.9 75.1 109.9 75.1 65.2 0 118-52.8 118-118s-52.8-118-118-118z" clip-path="url(#b)" fill="#c1c1e5"/><g clip-path="url(#b)"><path d="M1916-98c-28.1 0-51.2 21.1-54.6 48.2-7.1-3.4-15-5.2-23.4-5.2-6.1 0-12 1-17.5 2.9-4.6-42.6-40.6-75.9-84.5-75.9-29.6 0-55.6 15.1-70.9 38.1C1650-103.6 1630-112 1608-112c-27.6 0-52.1 13.1-67.6 33.5-11.6-17.7-31.6-29.5-54.4-29.5-22.1 0-41.6 11-53.3 27.9-15.9-14.8-37.2-23.9-60.7-23.9-8.2 0-16.1 1.1-23.7 3.2-13.3-32.4-45.2-55.2-82.3-55.2-36.1 0-67.2 21.5-81.1 52.4-2.6-.2-5.2-.4-7.9-.4-16.2 0-31.4 4.3-44.5 11.9-13.1-7.6-28.3-11.9-44.5-11.9-33.8 0-63.2 18.8-78.2 46.5C998.7-68.9 983.2-76 966-76c-15.8 0-30.2 6-41 15.8-17-36.5-54.1-61.8-97-61.8-21.7 0-41.9 6.5-58.8 17.6-9.1-49.8-52.7-87.6-105.2-87.6-46.2 0-85.5 29.2-100.5 70.2-2.1-.1-4.3-.2-6.5-.2-32.5 0-61.6 14.5-81.2 37.3C465-91.8 452-96 438-96c-24 0-45.1 12.2-57.5 30.8C362.5-99 327-122 286-122c-40.6 0-75.9 22.6-94.1 55.9C176.4-86.7 151.8-100 124-100c-26 0-49.3 11.7-64.9 30.2C45.8-88.1 24.3-100 0-100c-40.3 0-73 32.7-73 73s32.7 73 73 73c19.2 0 36.7-7.5 49.8-19.6C64.3 52.4 92.1 70 124 70c27.8 0 52.4-13.3 67.9-33.9C210.1 69.4 245.4 92 286 92c46.9 0 86.8-30.2 101.2-72.3C399.8 33.4 417.9 42 438 42c9 0 17.6-1.7 25.5-4.9C481.8 69.9 516.8 92 557 92c46.2 0 85.5-29.2 100.5-70.2 2.1.1 4.3.2 6.5.2 21.7 0 41.9-6.5 58.8-17.6C731.9 54.2 775.5 92 828 92c42.9 0 80-25.3 97-61.8C935.8 40 950.2 46 966 46c17.2 0 32.7-7.1 43.8-18.5 15.1 27.7 44.5 46.5 78.2 46.5 16.2 0 31.4-4.3 44.5-11.9 13.1 7.6 28.3 11.9 44.5 11.9 36.1 0 67.2-21.5 81.1-52.4 2.6.2 5.2.4 7.9.4 8.2 0 16.1-1.1 23.7-3.2C1303 51.2 1334.8 74 1372 74c38.8 0 71.7-24.8 83.9-59.4 9 4.7 19.2 7.4 30.1 7.4 16.7 0 31.9-6.3 43.4-16.6 12.7 30.9 43.1 52.6 78.6 52.6 29.6 0 55.6-15.1 70.9-38.1C1694 33.6 1714 42 1736 42c19.8 0 38-6.8 52.4-18.1 8.9 18.4 27.7 31.1 49.6 31.1 28.1 0 51.2-21.1 54.6-48.2 7.1 3.4 15 5.2 23.4 5.2 30.4 0 55-24.6 55-55s-24.6-55-55-55z" fill="#d6d6f2"/></g></svg>