<svg height="60" width="60" xmlns="http://www.w3.org/2000/svg"><g stroke="#000" stroke-width="2" fill="none" fill-rule="evenodd"><path d="M52.176 32.034v-3.378c0-3.598-.442-7.201-.442-7.201s-.431-3.065-1.758-4.413c-1.678-1.772-3.56-1.781-4.425-1.887-6.181-.447-15.454-.447-15.454-.447h-.018s-9.273 0-15.458.447c-.864.106-2.742.115-4.426 1.887-1.325 1.348-1.754 4.413-1.754 4.413s-.44 3.603-.44 7.2v3.379c0 3.599.44 7.197.44 7.197s.428 3.069 1.754 4.418c1.684 1.77 3.888 1.716 4.873 1.9 3.534.345 15.02.45 15.02.45s9.281-.017 15.462-.464c.866-.105 2.748-.115 4.427-1.886 1.326-1.35 1.758-4.418 1.758-4.418s.441-3.598.441-7.197z"/><path d="M25.528 36.12l11.932-6.226-11.937-6.272z"/><path d="M55 59H5a4 4 0 0 1-4-4V5a4 4 0 0 1 4-4h50a4 4 0 0 1 4 4v50a4 4 0 0 1-4 4z" stroke-linejoin="round"/></g></svg>