<svg height="32" id="svg2" overflow="visible" viewBox="0 0 25.6 25.6" width="32" xmlns="http://www.w3.org/2000/svg" fill-rule="evenodd" stroke-width=".501" stroke-linejoin="bevel"><script id="script3301"/><script id="script3299"/><defs id="defs4"><marker id="DefaultArrow2" markerHeight="1" markerWidth="1" orient="auto" overflow="visible" viewBox="0 0 1 1"><g id="g7" transform="scale(.00926)"><path d="M-9 54V-54L117 0z" id="path9"/></g></marker><marker id="DefaultArrow3" markerHeight="1" markerWidth="1" orient="auto" overflow="visible" viewBox="0 0 1 1"><g id="g12" transform="scale(.00926)"><path d="M-27 54L-9 0l-18-54L135 0z" id="path14"/></g></marker><marker id="DefaultArrow4" markerHeight="1" markerWidth="1" orient="auto" overflow="visible" viewBox="0 0 1 1"><g id="g17" transform="scale(.00926)"><path d="M-9 0v-45c0-6.708 11.808-11.58 18-9L117-9c3.916 1.631 9 4.758 9 9s-5.084 7.369-9 9L9 54c-6.192 2.58-18-2.292-18-9z" id="path19"/></g></marker><marker id="DefaultArrow5" markerHeight="1" markerWidth="1" orient="auto" overflow="visible" viewBox="0 0 1 1"><g id="g22" transform="scale(.00926)"><path d="M-54 0c0 29.807 24.193 54 54 54S54 29.807 54 0 29.807-54 0-54-54-29.807-54 0z" id="path24"/></g></marker><marker id="DefaultArrow6" markerHeight="1" markerWidth="1" orient="auto" overflow="visible" viewBox="0 0 1 1"><g id="g27" transform="scale(.00926)"><path d="M-63 0L0 63 63 0 0-63z" id="path29"/></g></marker><marker id="DefaultArrow7" markerHeight="1" markerWidth="1" orient="auto" overflow="visible" viewBox="0 0 1 1"><g id="g32" transform="scale(.00926)"><path d="M18-54h90L63 0l45 54H18L-36 0z" id="path34"/></g></marker><marker id="DefaultArrow8" markerHeight="1" markerWidth="1" orient="auto" overflow="visible" viewBox="0 0 1 1"><g id="g37" transform="scale(.00926)"><path d="M-36 0l54-54h36L18-18h9l36-36h36L63-18h9l36-36h36L90 0l54 54h-36L72 18h-9l36 36H63L27 18h-9l36 36H18z" id="path39"/></g></marker><marker id="DefaultArrow9" markerHeight="1" markerWidth="1" orient="auto" overflow="visible" viewBox="0 0 1 1"><g id="g42" transform="scale(.00926)"><path d="M0 45L-45 0 0-45 45 0zm0 18L-63 0 0-63 63 0z" id="path44"/></g></marker><filter color-interpolation-filters="sRGB" id="StainedFilter"><feBlend id="feBlend47" in="SourceGraphic" in2="BackgroundImage" mode="multiply" result="blend"/><feComposite id="feComposite49" in="blend" in2="SourceAlpha" operator="in" result="comp"/></filter><filter color-interpolation-filters="sRGB" id="BleachFilter"><feBlend id="feBlend52" in="SourceGraphic" in2="BackgroundImage" mode="screen" result="blend"/><feComposite id="feComposite54" in="blend" in2="SourceAlpha" operator="in" result="comp"/></filter><filter color-interpolation-filters="sRGB" id="InvertTransparencyBitmapFilter"><feComponentTransfer id="feComponentTransfer57"><feFuncR amplitude="1.055" exponent=".417" id="feFuncR59" offset="-.055" type="gamma"/><feFuncG amplitude="1.055" exponent=".417" id="feFuncG61" offset="-.055" type="gamma"/><feFuncB amplitude="1.055" exponent=".417" id="feFuncB63" offset="-.055" type="gamma"/></feComponentTransfer><feComponentTransfer id="feComponentTransfer65"><feFuncR id="feFuncR67" intercept="1" slope="-1" type="linear"/><feFuncG id="feFuncG69" intercept="1" slope="-1" type="linear"/><feFuncB id="feFuncB71" intercept="1" slope="-1" type="linear"/><feFuncA id="feFuncA73" type="linear"/></feComponentTransfer><feComponentTransfer id="feComponentTransfer75"><feFuncR exponent="2.4" id="feFuncR77" type="gamma"/><feFuncG exponent="2.4" id="feFuncG79" type="gamma"/><feFuncB exponent="2.4" id="feFuncB81" type="gamma"/></feComponentTransfer></filter><radialGradient cx="0" cy="0" gradientTransform="matrix(0 -1 .88605 0 172.174 122.358)" gradientUnits="userSpaceOnUse" id="RadialGradient" r="237.428"><stop id="stop84" offset="0" stop-color="#473600"/><stop id="stop86" offset=".792" stop-color="#3d2f00"/><stop id="stop88" offset=".99" stop-color="#3a2c00"/><stop id="stop90" offset="1" stop-color="#3a2c00"/></radialGradient><radialGradient cx="0" cy="0" gradientTransform="matrix(0 -1 .88605 0 170.916 119.88)" gradientUnits="userSpaceOnUse" id="RadialGradient_1" r="237.428"><stop id="stop93" offset="0" stop-color="#553e00"/><stop id="stop95" offset=".792" stop-color="#403200"/><stop id="stop97" offset=".99" stop-color="#3b2b00"/><stop id="stop99" offset="1" stop-color="#3b2b00"/></radialGradient><radialGradient cx="0" cy="0" gradientTransform="matrix(0 -1 .88605 0 169.66 117.403)" gradientUnits="userSpaceOnUse" id="RadialGradient_2" r="237.428"><stop id="stop102" offset="0" stop-color="#634700"/><stop id="stop104" offset=".792" stop-color="#443400"/><stop id="stop106" offset=".99" stop-color="#3c2a00"/><stop id="stop108" offset="1" stop-color="#3c2a00"/></radialGradient><radialGradient cx="0" cy="0" gradientTransform="matrix(0 -1 .88605 0 168.403 114.925)" gradientUnits="userSpaceOnUse" id="RadialGradient_3" r="237.428"><stop id="stop111" offset="0" stop-color="#724f00"/><stop id="stop113" offset=".792" stop-color="#473600"/><stop id="stop115" offset=".99" stop-color="#3c2900"/><stop id="stop117" offset="1" stop-color="#3c2900"/></radialGradient><radialGradient cx="0" cy="0" gradientTransform="matrix(0 -1 .88605 0 167.146 112.448)" gradientUnits="userSpaceOnUse" id="RadialGradient_4" r="237.428"><stop id="stop120" offset="0" stop-color="#805800"/><stop id="stop122" offset=".792" stop-color="#4b3800"/><stop id="stop124" offset=".99" stop-color="#3d2800"/><stop id="stop126" offset="1" stop-color="#3d2800"/></radialGradient><radialGradient cx="0" cy="0" gradientTransform="matrix(0 -1 .88605 0 165.889 109.97)" gradientUnits="userSpaceOnUse" id="RadialGradient_5" r="237.428"><stop id="stop129" offset="0" stop-color="#8e6000"/><stop id="stop131" offset=".792" stop-color="#4e3b00"/><stop id="stop133" offset=".99" stop-color="#3e2700"/><stop id="stop135" offset="1" stop-color="#3e2700"/></radialGradient><radialGradient cx="0" cy="0" gradientTransform="matrix(0 -1 .88605 0 164.632 107.493)" gradientUnits="userSpaceOnUse" id="RadialGradient_6" r="237.428"><stop id="stop138" offset="0" stop-color="#9c6900"/><stop id="stop140" offset=".792" stop-color="#523d00"/><stop id="stop142" offset=".99" stop-color="#3f2600"/><stop id="stop144" offset="1" stop-color="#3f2600"/></radialGradient><linearGradient gradientTransform="translate(218.601 165.399)" gradientUnits="userSpaceOnUse" id="LinearGradient" x2="42.75" y2="36.75"><stop id="stop147" offset="0" stop-color="#5c5c5c"/><stop id="stop149" offset="1"/></linearGradient><linearGradient gradientTransform="translate(181.122 157.792)" gradientUnits="userSpaceOnUse" id="LinearGradient_1" x2="-9.672" y2="-141.858"><stop id="stop152" offset="0" stop-color="#fff"/><stop id="stop154" offset="1" stop-color="#cfd1d2"/></linearGradient><linearGradient gradientTransform="translate(259.851 172.899)" gradientUnits="userSpaceOnUse" id="LinearGradient_2" x2="69.75" y2="-189.75"><stop id="stop157" offset="0" stop-color="#b5b5b5"/><stop id="stop159" offset="1"/></linearGradient><linearGradient gradientTransform="translate(204.11 87.059)" gradientUnits="userSpaceOnUse" id="LinearGradient_3" x2="-51.527" y2="-64.41"><stop id="stop162" offset="0" stop-color="#df9000"/><stop id="stop164" offset=".73" stop-color="#7f5200"/><stop id="stop166" offset=".99" stop-color="#3f2600"/><stop id="stop168" offset="1" stop-color="#3f2600"/></linearGradient><linearGradient gradientTransform="translate(199.945 96.333)" gradientUnits="userSpaceOnUse" id="LinearGradient_4" x2="19.041" y2="85.19"><stop id="stop171" offset="0" stop-color="#ba7d00"/><stop id="stop173" offset=".792" stop-color="#7f5200"/><stop id="stop175" offset=".99" stop-color="#3f2600"/><stop id="stop177" offset="1" stop-color="#3f2600"/></linearGradient><linearGradient gradientTransform="translate(129.134 111.014)" gradientUnits="userSpaceOnUse" id="LinearGradient_5" x2="-1.007" y2="-63.536"><stop id="stop180" offset="0" stop-color="#df9000"/><stop id="stop182" offset=".792" stop-color="#7f5200"/><stop id="stop184" offset=".99" stop-color="#3f2600"/><stop id="stop186" offset="1" stop-color="#3f2600"/></linearGradient><linearGradient gradientTransform="translate(129.286 104.867)" gradientUnits="userSpaceOnUse" id="LinearGradient_6" x2="15.098" y2="58.375"><stop id="stop189" offset="0" stop-color="#df9000"/><stop id="stop191" offset=".792" stop-color="#7f5200"/><stop id="stop193" offset=".99" stop-color="#3f2600"/><stop id="stop195" offset="1" stop-color="#3f2600"/></linearGradient><radialGradient cx="0" cy="0" gradientTransform="matrix(.69736 -.71673 1.23192 1.19862 183.351 196.899)" gradientUnits="userSpaceOnUse" id="RadialGradient_7" r="38.717"><stop id="stop198" offset="0" stop-color="#6b4c29"/><stop id="stop200" offset="1" stop-color="#a57348"/></radialGradient><radialGradient cx="0" cy="0" gradientTransform="matrix(0 -1 .97394 0 134.346 314.993)" gradientUnits="userSpaceOnUse" id="RadialGradient_8" r="120.999"><stop id="stop203" offset="0" stop-color="#e0bf9e"/><stop id="stop205" offset=".017" stop-color="#e0bf9e"/><stop id="stop207" offset=".202" stop-color="#e6b891"/><stop id="stop209" offset="1" stop-color="#7b5d39"/></radialGradient><radialGradient cx="0" cy="0" gradientTransform="matrix(-.01429 -.9999 1.20614 -.01724 146.601 370.899)" gradientUnits="userSpaceOnUse" id="RadialGradient_9" r="87.054"><stop id="stop212" offset="0" stop-color="#9a9a9a"/><stop id="stop214" offset="1" stop-color="#313131"/></radialGradient><linearGradient gradientTransform="translate(213.351 257.649)" gradientUnits="userSpaceOnUse" id="LinearGradient_7" x2="-54" y2="-87"><stop id="stop217" offset="0" stop-color="#484848"/><stop id="stop219" offset="1"/></linearGradient><linearGradient gradientTransform="translate(133.101 343.149)" gradientUnits="userSpaceOnUse" id="LinearGradient_8" x2="10.5" y2="-85.5"><stop id="stop222" offset="0" stop-color="#8d8d8d"/><stop id="stop224" offset="1"/></linearGradient><linearGradient gradientTransform="translate(239.24 380.259)" gradientUnits="userSpaceOnUse" id="LinearGradient_9" x2="3.6" y2="-129"><stop id="stop227" offset="0" stop-color="#fff"/><stop id="stop229" offset="1"/></linearGradient><linearGradient gradientTransform="translate(115.007 352.336)" gradientUnits="userSpaceOnUse" id="LinearGradient_10" x2="108" y2="-33.75"><stop id="stop232" offset="0" stop-color="#fff"/><stop id="stop234" offset="1"/></linearGradient><linearGradient gradientTransform="translate(226.61 87.059)" gradientUnits="userSpaceOnUse" id="LinearGradient_11" x2="-51.527" y2="-64.41"><stop id="stop237" offset="0" stop-color="#df9000"/><stop id="stop239" offset=".73" stop-color="#7f5200"/><stop id="stop241" offset=".99" stop-color="#3f2600"/><stop id="stop243" offset="1" stop-color="#3f2600"/></linearGradient></defs><g id="g3396" transform="matrix(.6405 0 0 .64032 0 25.6)"><path d="M26.386-10.883l-2.484-3.142a1.72 1.72 0 0 0-.328-.32l-.087-.05-.036.085-.567 2.53-.095.522c-.16.54-.51 1.092-1.222 1.23L21.13-10h-2.872c-5.11 0-9.722-7.279-12.951-16.347l-.024-.085c-.11-.545-.165-1.15.102-1.636.306-.561.892-.741 1.507-.76l4.415.03a.62.62 0 0 1 .592.442c.993 3.264 2.212 5.258 3.702 7.532l.042.073c.162.34.5.244.674-.026l.107-.315.002-5.123c0-.753-.343-.86-1.176-.978a.625.625 0 0 1-.506-.807c.401-1.273 1.718-1.924 3.545-1.924l1.684-.04c1.362 0 2.596.585 2.596 2.327v6.74l.12.066c.223.079.661.095 1.016-.461 1.53-2.16 3.294-4.738 3.542-6.086a.636.636 0 0 1 .05-.157c.311-.655 1.162-1.116 1.505-1.221a.871.871 0 0 1 .258-.043l4.598.003.285.003c.108.014.215.037.318.074.276.1.471.281.6.488.25.41.216.87.24 1.053.01.061.01.125 0 .188-.43 2.699-3.533 5.724-4.837 7.687-.335.462-.34.806-.028 1.185l4.328 5.42c.5.714.473 1.495-.058 2.054-.347.364-.85.568-1.38.63l-.5.014h-4.6l.082-.005c-.605.08-1.074-.17-1.427-.524l-.294-.354zm1.64-.366l4.629.001c.487.029.816-.121.945-.258.045-.046.107-.121.047-.283l-.1-.182-4.283-5.36c-.734-.894-.614-1.872-.028-2.683 1.24-1.868 3.905-4.537 4.533-6.74l.085-.376-.022-.238-.033-.182H29.14l-.147.07c-.14.078-.313.2-.437.317l-.125.155-.154.554c-.533 1.492-1.867 3.482-3.005 5.105l-.548.773-.346.427c-.92.894-2.278.731-2.833-.015a1.108 1.108 0 0 1-.226-.663v-6.81c0-.806-.366-1.077-1.332-1.077l-1.684.04c-.81 0-1.364.138-1.733.338l-.205.133.145.052c.616.275 1.164.811 1.164 1.937l-.005 5.203c-.12 1.625-2.105 2.34-2.993 1.078l-.12-.206c-1.325-2.021-2.483-3.89-3.45-6.625l-.258-.788-3.945-.025c-.407.01-.43.12-.423.109-.027.046-.059.173-.029.455l.049.294.616 1.663c3.225 8.354 7.309 13.807 11.14 13.807l2.9.001c.393.02.478-.418.498-.714l.015-.09.576-2.581.017-.063c.08-.239.203-.47.393-.65a1.13 1.13 0 0 1 .945-.308c.493.065.925.416 1.276.844l2.51 3.18c.258.37.428.404.556.387l.083-.006z" id="path3398"/><path d="M0-3.652v-32.676a3.654 3.654 0 0 1 3.65-3.652h32.668a3.655 3.655 0 0 1 3.65 3.652v32.676A3.654 3.654 0 0 1 36.319 0H3.65A3.652 3.652 0 0 1 0-3.652zm38.72 0v-32.676a2.407 2.407 0 0 0-2.402-2.403H3.65a2.406 2.406 0 0 0-2.401 2.403v32.676A2.405 2.405 0 0 0 3.65-1.25h32.668a2.406 2.406 0 0 0 2.402-2.402z" id="path3400"/></g></svg>