<svg xmlns="http://www.w3.org/2000/svg" viewBox="0 0 512.045 512.045"><g fill="#d6d6f2"><path d="M256.043 192.023v-10.667c0-17.673-14.327-32-32-32H111.616c23.618-26.297 21.445-66.762-4.852-90.38s-66.762-21.445-90.38 4.852c-22.83 25.421-21.666 64.292 2.645 88.301A32.001 32.001 0 0 0 .042 181.356v298.667c0 17.673 14.327 32 32 32h10.667a31.999 31.999 0 0 0 21.333-8.213 31.996 31.996 0 0 0 21.333 8.213h10.667c17.673 0 32-14.327 32-32v-256h96c17.674 0 32.001-14.327 32.001-32zm-192-128c23.564 0 42.667 19.103 42.667 42.667s-19.103 42.667-42.667 42.667-42.667-19.102-42.667-42.667 19.102-42.667 42.667-42.667zm53.333 138.667c-5.891 0-10.667 4.776-10.667 10.667v266.667c0 5.891-4.776 10.667-10.667 10.667H85.376c-5.891 0-10.667-4.776-10.667-10.667V309.357H53.376v170.667c0 5.891-4.776 10.667-10.667 10.667H32.043c-5.891 0-10.667-4.776-10.667-10.667V181.357c0-5.891 4.776-10.667 10.667-10.667h192c5.891 0 10.667 4.776 10.667 10.667v10.667c0 5.891-4.776 10.667-10.667 10.667H117.376z"/><path d="M485.805.025l-.215-.002H176.256c-14.668-.177-26.701 11.57-26.878 26.238l-.002.215v90.88h21.333v-90.88a5.12 5.12 0 0 1 5.12-5.12h309.333a5.12 5.12 0 0 1 5.12 5.12v288a5.12 5.12 0 0 1-5.12 5.12H175.829a5.12 5.12 0 0 1-5.12-5.12v-58.453h-21.333v58.88c.058 14.586 11.868 26.395 26.453 26.453h144.213v70.613l-72 82.347 16 14.08 66.667-76.16 66.667 76.16 16-14.08-72-82.347v-70.613h144.213c14.586-.058 26.395-11.868 26.453-26.453v-288C512.22 12.236 500.472.202 485.805.025z"/><path d="M469.376 53.357c0-5.891-4.776-10.667-10.667-10.667h-42.667v21.333h32v32h21.333V53.357zm-21.333 64h21.333v21.333h-21.333zm0 160h21.333v21.333h-21.333zm-53.334 0h21.333v21.333h-21.333zm-53.333 0h21.333v21.333h-21.333z"/></g></svg>