<svg xmlns="http://www.w3.org/2000/svg" viewBox="0 0 233.884 233.884"><g fill="#1f1f79"><path d="M98.659 133.091h36.565c8.822 0 16-7.178 16-16V83.302c0-5.005-2.314-9.477-5.923-12.412.009-.14.021-.277.021-.418v-7.599c0-15.649-12.732-28.381-28.381-28.381s-28.38 12.732-28.38 28.382v7.599c0 .141.012.279.021.418-3.609 2.936-5.922 7.407-5.922 12.412v33.789c-.001 8.822 7.177 15.999 15.999 15.999zm40.566-16c0 2.168-1.832 4-4 4H98.659c-2.168 0-4-1.832-4-4V83.302c0-2.168 1.832-4 4-4h36.565c2.168 0 4 1.832 4 4v33.789zm-22.284-70.598c9.032 0 16.381 7.349 16.381 16.381v4.429H100.56v-4.429c.001-9.033 7.349-16.381 16.381-16.381z"/><path d="M116.941 89.431a6 6 0 0 0-6 6v10.031a6 6 0 0 0 12 0V95.431a6 6 0 0 0-6-6z"/><path d="M211.384 7.33H22.5C10.093 7.33 0 17.423 0 29.83v140.796c0 12.406 10.093 22.5 22.5 22.5h57.461v18.429H54.664a7.5 7.5 0 0 0-7.5 7.5 7.5 7.5 0 0 0 7.5 7.5H179.22a7.5 7.5 0 0 0 7.5-7.5 7.5 7.5 0 0 0-7.5-7.5h-25.297v-18.429h57.461c12.407 0 22.5-10.094 22.5-22.5V29.83c0-12.407-10.094-22.5-22.5-22.5zM22.5 22.33h188.884c4.136 0 7.5 3.364 7.5 7.5v111.13H15V29.83c0-4.136 3.364-7.5 7.5-7.5zm116.422 188.224H94.961v-17.429h43.961v17.429zm72.462-32.428H22.5c-4.136 0-7.5-3.364-7.5-7.5V155.96h203.884v14.665c0 4.136-3.364 7.501-7.5 7.501z"/></g></svg>